<?xml version="1.0" encoding="UTF-8" standalone="no"?>
<!-- Created with Inkscape (http://www.inkscape.org/) -->

<svg
   version="1.1"
   id="svg1"
   width="504"
   height="504"
   viewBox="0 0 504 503.99999"
   sodipodi:docname="ollama.svg"
   inkscape:version="1.3.2 (091e20ef0f, 2023-11-25)"
   xmlns:inkscape="http://www.inkscape.org/namespaces/inkscape"
   xmlns:sodipodi="http://sodipodi.sourceforge.net/DTD/sodipodi-0.dtd"
   xmlns="http://www.w3.org/2000/svg"
   xmlns:svg="http://www.w3.org/2000/svg">
  <defs
     id="defs1" />
  <sodipodi:namedview
     id="namedview1"
     pagecolor="#505050"
     bordercolor="#eeeeee"
     borderopacity="1"
     inkscape:showpageshadow="0"
     inkscape:pageopacity="0"
     inkscape:pagecheckerboard="0"
     inkscape:deskcolor="#505050"
     showgrid="false"
     inkscape:zoom="0.58959959"
     inkscape:cx="129.74907"
     inkscape:cy="306.13997"
     inkscape:window-width="1920"
     inkscape:window-height="1011"
     inkscape:window-x="0"
     inkscape:window-y="0"
     inkscape:window-maximized="1"
     inkscape:current-layer="g1" />
  <g
     inkscape:groupmode="layer"
     inkscape:label="Image"
     id="g1"
     transform="translate(131.33334,81.333328)">
    <circle
       style="fill:#ffffff;fill-opacity:1"
       id="path2"
       cx="120.66666"
       cy="170.66667"
       r="252" />
    <path
       style="fill:#000000"
       d="M 6.9988515,323.69233 C 3.7387208,311.95316 6.3391108,288.30231 12.14019,276.93125 l 2.556148,-5.01046 -4.451929,-9.16772 C 0.8585447,243.42506 0.47593174,218.84195 9.2209808,196.99721 l 3.3841032,-8.45334 -3.3781243,-6.25911 C -4.9073999,156.09615 -0.08712911,125.15153 21.625143,102.69233 l 7.733944,-8 -1.135691,-6.66667 C 25.545484,72.305934 27.460194,49.280132 32.602891,35.358991 46.304383,-1.7305749 77.299159,8.4388231 84.716037,52.457335 c 1.318319,7.824104 1.930172,9.226365 3.568582,8.178562 15.218711,-9.732728 40.755351,-10.845922 58.509891,-2.550563 4.69284,2.19261 8.62824,3.82616 8.74533,3.630111 0.1171,-0.196049 0.90745,-4.600671 1.75635,-9.788048 7.11236,-43.4617319 38.34446,-53.4209689 51.9584,-16.568406 5.13051,13.888127 7.04746,36.822362 4.40214,52.666669 l -1.11304,6.66667 8.3289,8.66666 c 20.37823,21.20462 25.12098,53.06919 11.61137,78.012 l -3.68094,6.79614 3.19324,7.2626 c 9.31339,21.18207 9.16265,47.66591 -0.38318,67.32334 l -4.45193,9.16772 2.55615,5.01046 c 5.80107,11.37106 8.40146,35.02191 5.14133,46.76108 l -1.38857,5 h -8.75943 -8.75943 l 0.92736,-3.66666 c 3.7038,-14.64445 1.89077,-31.98167 -4.66529,-44.61205 -4.98351,-9.60083 -4.95309,-10.36281 0.78478,-19.6589 11.28969,-18.29074 11.49286,-44.06354 0.50223,-63.70886 -4.97571,-8.89388 -4.90728,-10.59598 0.7648,-19.02466 21.41939,-31.82908 0.626,-75.14703 -36.99062,-77.06092 l -11.65429,-0.59295 -2.87066,-5.74795 C 145.64635,60.373629 96.595811,61.487266 77.324089,96.55887 c -2.205234,4.01319 -2.543228,4.13346 -11.616649,4.13346 -38.997636,0 -63.9770826,55.48975 -36.256144,80.53998 3.817091,3.44935 3.534001,7.54102 -1.09409,15.81355 -10.99063,19.64532 -10.787459,45.41812 0.502227,63.70886 5.737875,9.29609 5.768294,10.05807 0.784787,19.6589 -6.556062,12.63038 -8.369096,29.9676 -4.665294,44.61205 l 0.927356,3.66666 H 17.146851 8.3874208 Z M 59.0157,83.835421 68.21221,82.980696 69.076149,78.375505 C 72.564199,59.782596 61.125794,25.210754 53.707362,31.924342 45.440844,39.405438 39.955308,88.47527 47.718539,85.496242 48.873896,85.052889 53.957619,84.30552 59.0157,83.835421 Z M 196.90827,69.239552 c -0.0471,-36.509369 -12.25677,-50.728455 -20.53776,-23.917727 -6.40835,20.74781 -5.37421,37.994857 2.28532,38.114007 2.71677,0.04226 7.33958,0.569581 10.27291,1.171821 8.10686,1.664409 8.00175,1.866842 7.97953,-15.368101 z M 102.5747,219.31799 c -49.220379,-12.34514 -33.945536,-73.58511 18.35404,-73.58511 47.82969,0 67.06553,51.88805 26.20718,70.69299 -8.33204,3.8348 -34.12769,5.50899 -44.56122,2.89212 z m 40.05148,-13.27696 C 173.0332,192.90694 157.18959,157.359 120.92874,157.359 c -40.799463,0 -52.463766,41.6867 -14.35404,51.29948 8.76457,2.21078 28.12831,0.8049 36.05148,-2.61745 z m -26.3641,-15.5246 c 0,-3.60574 -0.99205,-6.04699 -3.5366,-8.70293 -5.19535,-5.42278 -2.84473,-7.42094 8.53312,-7.25359 10.19975,0.15001 13.08624,3.58645 6.74601,8.03127 -2.27693,1.59624 -3.07587,3.44788 -3.07587,7.12874 0,4.6353 -0.29378,5.00074 -4.33333,5.39022 -4.1944,0.40442 -4.33333,0.25713 -4.33333,-4.59371 z M 51.534803,168.08627 c -3.742497,-3.7425 -4.164794,-8.46797 -1.258926,-14.0873 5.629811,-10.88685 20.652865,-7.44235 20.652865,4.73532 0,10.46847 -12.331201,16.41472 -19.393939,9.35198 z m 123.291377,-0.62471 c -5.09371,-5.09371 -5.35381,-12.10074 -0.62471,-16.82984 5.49179,-5.49179 13.61255,-3.91847 17.38014,3.36725 6.54877,12.66394 -6.81589,23.40213 -16.75543,13.46259 z"
       id="path1" />
  </g>
</svg>
